<?xml version="1.0" encoding="utf-8"?>

<svg version="1.1" xmlns="http://www.w3.org/2000/svg" viewBox="0 0 512 375.5">
    <path fill="#F2F2F4"
        d="M20,0h472c11,0,20,9,20,20v335.5c0,11-9,20-20,20H20c-11,0-20-9-20-20V20C0,9,9,0,20,0z" />
    <path fill="#DFDFE1" d="M256,0h236c11,0,20,9,20,20v335.5c0,11-9,20-20,20H256V0z" />
    <path fill="#88888F" d="M307.2,219.8L201.9,114.5c-7.8-7.8-20.5-7.8-28.3,0L57,231.4c-3.7,3.7-5.8,8.8-5.8,14.1v58.8
	c0,11,9,20,20,20H256" />
    <g>
        <path fill="#56545A" d="M315.7,145.1c18.8,0,34.1-15.3,34.1-34.1s-15.3-34.1-34.1-34.1c-18.8,0-34.1,15.3-34.1,34.1
		S296.9,145.1,315.7,145.1z" />
        <path fill="#56545A" d="M361.3,165.7l-40,40c-7.8,7.8-20.5,7.8-28.3,0L256,168.6v155.7h184.8c11,0,20-9,20-20v-58.8
		c0-5.3-2.1-10.4-5.8-14.1l-65.4-65.6C381.8,157.9,369.1,157.9,361.3,165.7z" />
    </g>
</svg>
